<?xml version="1.0" encoding="UTF-8"?>
<svg xmlns="http://www.w3.org/2000/svg" xmlns:xlink="http://www.w3.org/1999/xlink" width="776pt" height="650pt" viewBox="0 0 776 650" version="1.1">
<g id="surface1">
<path style=" stroke:none;fill-rule:nonzero;fill:rgb(89.803922%,89.803922%,89.803922%);fill-opacity:1;" d="M 775.773438 176.578125 C 775.773438 180.464844 775.648438 184.335938 775.402344 188.160156 C 773.976562 210.257812 768.398438 231.890625 758.949219 251.921875 C 758.871094 252.089844 758.792969 252.261719 758.714844 252.417969 C 758.28125 253.351562 757.832031 254.269531 757.363281 255.183594 C 728.148438 313.929688 668.820312 351.660156 603.257812 353.1875 L 605.011719 453.664062 L 627.773438 441.664062 L 631.84375 449.40625 L 605.183594 463.441406 L 608.277344 640.671875 L 608.429688 650 L 590.984375 650 L 591.15625 640.671875 L 596.453125 353.203125 C 549.359375 352.53125 504.5 333.003906 471.910156 298.988281 C 470.789062 297.835938 469.703125 296.65625 468.617188 295.472656 C 468.570312 295.429688 468.539062 295.378906 468.507812 295.351562 C 455.054688 280.679688 444.179688 263.84375 436.332031 245.546875 C 436.503906 245.75 436.691406 245.921875 436.863281 246.121094 C 400.050781 160.011719 436.785156 60.121094 520.597656 18.417969 C 521.203125 18.125 521.839844 17.828125 522.445312 17.519531 C 605.234375 -22.382812 704.769531 7.855469 751.414062 87.078125 C 752.488281 88.878906 753.527344 90.730469 754.523438 92.578125 C 768.503906 118.367188 775.808594 147.242188 775.773438 176.578125 Z M 775.773438 176.578125 "/>
<path style=" stroke:none;fill-rule:nonzero;fill:rgb(94.509804%,94.509804%,94.509804%);fill-opacity:1;" d="M 41.734375 622.425781 C 28.957031 631.957031 25.335938 648.722656 25.335938 648.722656 C 25.335938 648.722656 42.429688 650.039062 55.203125 640.507812 C 67.980469 630.980469 71.601562 614.214844 71.601562 614.214844 C 71.601562 614.214844 54.507812 612.898438 41.734375 622.425781 Z M 41.734375 622.425781 "/>
<path style=" stroke:none;fill-rule:nonzero;fill:rgb(94.509804%,94.509804%,94.509804%);fill-opacity:1;" d="M 47.054688 626.902344 C 40.914062 641.613281 25.539062 649.195312 25.539062 649.195312 C 25.539062 649.195312 20.113281 632.921875 26.253906 618.210938 C 32.394531 603.496094 47.773438 595.914062 47.773438 595.914062 C 47.773438 595.914062 53.195312 612.1875 47.054688 626.902344 Z M 47.054688 626.902344 "/>
<path style=" stroke:none;fill-rule:nonzero;fill:rgb(79.215686%,79.215686%,79.215686%);fill-opacity:1;" d="M 424.640625 468.238281 C 424.640625 455.6875 375.800781 445.515625 315.546875 445.515625 C 255.296875 445.515625 206.453125 455.6875 206.453125 468.238281 C 206.453125 480.785156 255.296875 490.957031 315.546875 490.957031 C 375.800781 490.957031 424.640625 480.785156 424.640625 468.238281 Z M 424.640625 468.238281 "/>
<path style=" stroke:none;fill-rule:nonzero;fill:rgb(79.215686%,79.215686%,79.215686%);fill-opacity:1;" d="M 309.128906 479.382812 L 321.964844 479.382812 L 321.964844 649.292969 L 309.128906 649.292969 Z M 309.128906 479.382812 "/>
<path style=" stroke:none;fill-rule:nonzero;fill:rgb(100%,72.156863%,72.156863%);fill-opacity:1;" d="M 390.566406 457.488281 C 391.96875 454.726562 394.484375 452.695312 397.476562 451.90625 C 400.46875 451.117188 403.65625 451.640625 406.238281 453.347656 C 406.640625 453.617188 407.023438 453.914062 407.386719 454.234375 L 454.503906 443.070312 L 457.976562 431.535156 L 476.773438 434.621094 L 472.933594 454 C 471.96875 458.769531 467.992188 462.339844 463.152344 462.785156 L 409.847656 467.484375 C 409.683594 467.800781 409.503906 468.105469 409.308594 468.402344 C 407.601562 470.988281 404.875 472.71875 401.8125 473.164062 C 398.75 473.609375 395.640625 472.726562 393.269531 470.738281 C 392.925781 470.453125 392.605469 470.148438 392.300781 469.824219 C 389.199219 466.476562 388.507812 461.558594 390.566406 457.488281 Z M 390.566406 457.488281 "/>
<path style=" stroke:none;fill-rule:nonzero;fill:rgb(89.411765%,89.411765%,89.411765%);fill-opacity:1;" d="M 492.730469 539.558594 L 445.332031 539.558594 C 445.332031 540.921875 396.484375 542.027344 396.484375 542.027344 C 395.714844 542.605469 395.015625 543.265625 394.398438 544.003906 C 392.542969 546.214844 391.53125 549.015625 391.535156 551.90625 L 391.535156 553.878906 C 391.539062 560.699219 397.0625 566.226562 403.878906 566.230469 L 492.730469 566.230469 C 499.546875 566.222656 505.066406 560.699219 505.074219 553.878906 L 505.074219 551.90625 C 505.0625 545.089844 499.542969 539.566406 492.730469 539.558594 Z M 492.730469 539.558594 "/>
<path style=" stroke:none;fill-rule:nonzero;fill:rgb(89.411765%,89.411765%,89.411765%);fill-opacity:1;" d="M 441.171875 565.738281 L 454.007812 565.738281 L 454.007812 648.71875 L 441.171875 648.71875 Z M 441.171875 565.738281 "/>
<path style=" stroke:none;fill-rule:nonzero;fill:rgb(89.411765%,89.411765%,89.411765%);fill-opacity:1;" d="M 404.644531 648.265625 C 404.644531 649.652344 424.09375 648.800781 448.085938 648.800781 C 472.074219 648.800781 491.523438 649.652344 491.523438 648.265625 C 491.523438 646.878906 472.074219 635.875 448.085938 635.875 C 424.09375 635.875 404.644531 646.878906 404.644531 648.265625 Z M 404.644531 648.265625 "/>
<path style=" stroke:none;fill-rule:nonzero;fill:rgb(100%,72.156863%,72.156863%);fill-opacity:1;" d="M 417.21875 637.550781 L 405.113281 637.550781 L 399.355469 606.140625 L 417.21875 606.140625 Z M 417.21875 637.550781 "/>
<path style=" stroke:none;fill-rule:nonzero;fill:rgb(18.431373%,18.039216%,25.490196%);fill-opacity:1;" d="M 420.304688 649.292969 L 381.277344 649.289062 L 381.277344 648.796875 C 381.277344 640.402344 388.078125 633.597656 396.46875 633.597656 L 420.304688 633.597656 Z M 420.304688 649.292969 "/>
<path style=" stroke:none;fill-rule:nonzero;fill:rgb(18.431373%,18.039216%,25.490196%);fill-opacity:1;" d="M 399.113281 618.074219 L 374.984375 563.933594 C 370.804688 554.46875 374.597656 543.382812 383.691406 538.460938 L 436.03125 510.378906 L 459.914062 508.347656 L 481.945312 506.34375 L 482.101562 506.613281 C 482.304688 506.957031 487.042969 515.144531 483.839844 524.117188 C 481.414062 530.929688 475.09375 536.246094 465.0625 539.925781 C 441.652344 548.515625 414.605469 555.855469 404.0625 558.613281 C 403.121094 558.855469 402.328125 559.488281 401.878906 560.351562 C 401.433594 561.207031 401.363281 562.210938 401.6875 563.117188 L 424.105469 613.511719 C 424.578125 614.808594 424.425781 616.25 423.6875 617.417969 C 422.953125 618.582031 421.714844 619.339844 420.34375 619.46875 L 403.59375 620.6875 C 403.449219 620.703125 403.308594 620.707031 403.167969 620.707031 C 401.414062 620.707031 399.828125 619.675781 399.113281 618.074219 Z M 399.113281 618.074219 "/>
<path style=" stroke:none;fill-rule:nonzero;fill:rgb(100%,72.156863%,72.156863%);fill-opacity:1;" d="M 425.117188 637.550781 L 413.011719 637.550781 L 407.253906 606.140625 L 425.117188 606.140625 Z M 425.117188 637.550781 "/>
<path style=" stroke:none;fill-rule:nonzero;fill:rgb(18.431373%,18.039216%,25.490196%);fill-opacity:1;" d="M 428.203125 649.292969 L 389.175781 649.289062 L 389.175781 648.796875 C 389.175781 640.402344 395.976562 633.597656 404.367188 633.597656 L 428.203125 633.597656 Z M 428.203125 649.292969 "/>
<path style=" stroke:none;fill-rule:nonzero;fill:rgb(18.431373%,18.039216%,25.490196%);fill-opacity:1;" d="M 408 621.039062 L 383.871094 566.894531 C 379.691406 557.433594 383.480469 546.347656 392.578125 541.425781 L 444.914062 513.34375 L 468.796875 511.3125 L 486.054688 509.8125 L 486.050781 509.578125 C 486.253906 509.917969 490.992188 518.105469 487.789062 527.082031 C 485.359375 533.890625 483.980469 539.210938 473.949219 542.890625 C 450.535156 551.480469 423.492188 558.820312 412.949219 561.578125 C 412.007812 561.820312 411.210938 562.453125 410.765625 563.316406 C 410.320312 564.171875 410.25 565.171875 410.574219 566.082031 L 432.988281 616.476562 C 433.464844 617.769531 433.3125 619.214844 432.574219 620.378906 C 431.839844 621.546875 430.601562 622.304688 429.230469 622.429688 L 412.480469 623.652344 C 412.335938 623.664062 412.195312 623.671875 412.054688 623.671875 C 410.300781 623.671875 408.714844 622.640625 408 621.039062 Z M 408 621.039062 "/>
<path style=" stroke:none;fill-rule:nonzero;fill:rgb(0%,56.862745%,48.627451%);fill-opacity:1;" d="M 453.472656 510.800781 C 452.316406 509.980469 435.703125 518.703125 432.742188 511.789062 C 446.5625 477.214844 437.039062 462.285156 445.503906 442.457031 C 448.527344 435.53125 454.554688 430.367188 461.859375 428.449219 L 483.828125 427.339844 L 483.941406 427.394531 C 494.121094 432.382812 499.824219 443.460938 497.980469 454.648438 C 497.902344 476.226562 485 492.683594 489.511719 508.335938 C 489.890625 509.65625 489.71875 511.078125 489.03125 512.269531 C 488.367188 513.421875 487.253906 514.246094 485.957031 514.550781 L 456.953125 510.679688 C 455.582031 511.003906 454.136719 510.726562 452.984375 509.910156 Z M 453.472656 510.800781 "/>
<path style=" stroke:none;fill-rule:nonzero;fill:rgb(100%,72.156863%,72.156863%);fill-opacity:1;" d="M 500.746094 394.871094 C 500.746094 408.269531 489.890625 419.132812 476.496094 419.132812 C 463.105469 419.132812 452.25 408.269531 452.25 394.871094 C 452.25 381.46875 463.105469 370.605469 476.496094 370.605469 C 489.890625 370.605469 500.746094 381.46875 500.746094 394.871094 Z M 500.746094 394.871094 "/>
<path style=" stroke:none;fill-rule:nonzero;fill:rgb(18.431373%,18.039216%,25.490196%);fill-opacity:1;" d="M 484.21875 417.140625 C 482.933594 417.703125 480.292969 407.429688 481.476562 405.375 C 483.234375 402.320312 483.128906 402.34375 484.296875 400.320312 C 485.460938 398.300781 485.722656 395.535156 484.210938 393.753906 C 482.703125 391.976562 479.207031 392.210938 478.515625 394.441406 C 478.960938 390.207031 474.773438 386.800781 470.625 385.84375 C 466.476562 384.886719 462.101562 385.484375 457.929688 384.632812 C 453.089844 383.644531 448.054688 379.582031 449.988281 374.257812 C 450.316406 373.371094 450.8125 372.554688 451.449219 371.855469 C 453.679688 369.34375 456.800781 368.273438 459.851562 367.234375 C 466.199219 365.078125 472.722656 362.898438 479.421875 363.132812 C 490.703125 363.726562 500.5625 370.941406 504.546875 381.515625 C 505.007812 382.8125 505.363281 384.140625 505.613281 385.492188 C 507.914062 397.867188 500.734375 410.070312 489.070312 414.78125 Z M 484.21875 417.140625 "/>
<path style=" stroke:none;fill-rule:nonzero;fill:rgb(89.411765%,89.411765%,89.411765%);fill-opacity:1;" d="M 126.042969 532.40625 L 163.097656 532.40625 C 163.097656 533.996094 203.601562 535.285156 203.601562 535.285156 C 204.492188 535.957031 205.308594 536.730469 206.027344 537.585938 C 208.191406 540.167969 209.371094 543.429688 209.363281 546.796875 L 209.363281 549.097656 C 209.363281 557.042969 202.925781 563.484375 194.984375 563.488281 L 126.042969 563.488281 C 118.105469 563.480469 111.667969 557.042969 111.664062 549.097656 L 111.664062 546.796875 C 111.675781 538.851562 118.105469 532.417969 126.042969 532.40625 Z M 126.042969 532.40625 "/>
<path style=" stroke:none;fill-rule:nonzero;fill:rgb(89.411765%,89.411765%,89.411765%);fill-opacity:1;" d="M 152.988281 562.914062 L 167.945312 562.914062 L 167.945312 649.292969 L 152.988281 649.292969 Z M 152.988281 562.914062 "/>
<path style=" stroke:none;fill-rule:nonzero;fill:rgb(89.411765%,89.411765%,89.411765%);fill-opacity:1;" d="M 211.585938 647.691406 C 211.585938 649.308594 188.921875 648.316406 160.964844 648.316406 C 133.007812 648.316406 110.34375 649.308594 110.34375 647.691406 C 110.34375 646.074219 133.007812 633.253906 160.964844 633.253906 C 188.921875 633.253906 211.585938 646.074219 211.585938 647.691406 Z M 211.585938 647.691406 "/>
<path style=" stroke:none;fill-rule:nonzero;fill:rgb(62.352941%,38.039216%,41.568627%);fill-opacity:1;" d="M 221.632812 637.820312 L 232.761719 637.820312 L 238.058594 594.863281 L 221.628906 594.863281 Z M 221.632812 637.820312 "/>
<path style=" stroke:none;fill-rule:nonzero;fill:rgb(18.431373%,18.039216%,25.490196%);fill-opacity:1;" d="M 218.792969 634.1875 L 240.714844 634.183594 C 248.429688 634.183594 254.683594 640.441406 254.683594 648.164062 L 254.683594 648.617188 L 218.792969 648.617188 Z M 218.792969 634.1875 "/>
<path style=" stroke:none;fill-rule:nonzero;fill:rgb(62.352941%,38.039216%,41.568627%);fill-opacity:1;" d="M 254.53125 637.820312 L 265.660156 637.820312 L 270.957031 594.863281 L 254.527344 594.863281 Z M 254.53125 637.820312 "/>
<path style=" stroke:none;fill-rule:nonzero;fill:rgb(18.431373%,18.039216%,25.490196%);fill-opacity:1;" d="M 251.691406 634.1875 L 273.613281 634.183594 C 281.328125 634.183594 287.582031 640.441406 287.582031 648.164062 L 287.582031 648.617188 L 251.691406 648.617188 Z M 251.691406 634.1875 "/>
<path style=" stroke:none;fill-rule:nonzero;fill:rgb(62.352941%,38.039216%,41.568627%);fill-opacity:1;" d="M 215.789062 501.863281 C 215.476562 499.378906 214.078125 497.15625 211.972656 495.800781 C 209.867188 494.445312 207.265625 494.09375 204.875 494.839844 L 192.488281 479.980469 L 181.628906 485.308594 L 199.417969 506.046875 C 200.96875 510.074219 205.28125 512.300781 209.460938 511.234375 C 213.636719 510.164062 216.355469 506.140625 215.789062 501.863281 Z M 215.789062 501.863281 "/>
<path style=" stroke:none;fill-rule:nonzero;fill:rgb(89.411765%,89.411765%,89.411765%);fill-opacity:1;" d="M 174.132812 413.730469 L 181.398438 416.714844 L 183.15625 437.253906 L 202.617188 490.511719 L 186.089844 496.015625 L 167.722656 460.289062 Z M 174.132812 413.730469 "/>
<path style=" stroke:none;fill-rule:nonzero;fill:rgb(62.352941%,38.039216%,41.568627%);fill-opacity:1;" d="M 174.617188 370.621094 C 174.617188 381.316406 165.953125 389.988281 155.261719 389.988281 C 144.574219 389.988281 135.910156 381.316406 135.910156 370.621094 C 135.910156 359.925781 144.574219 351.257812 155.261719 351.257812 C 165.953125 351.257812 174.617188 359.925781 174.617188 370.621094 Z M 174.617188 370.621094 "/>
<path style=" stroke:none;fill-rule:nonzero;fill:rgb(18.431373%,18.039216%,25.490196%);fill-opacity:1;" d="M 152.285156 361.609375 C 152.285156 361.609375 153.132812 349.847656 163.613281 354.644531 C 174.089844 359.441406 173.40625 346.21875 170.238281 343.882812 C 167.074219 341.546875 167.175781 340.96875 155.59375 342.53125 C 144.011719 344.09375 121.53125 346.742188 128.800781 370.042969 C 136.070312 393.339844 146.777344 387.273438 146.777344 387.273438 C 146.777344 387.273438 136.875 366.378906 142.730469 370.375 L 148.585938 374.371094 L 151.675781 373.714844 Z M 152.285156 361.609375 "/>
<path style=" stroke:none;fill-rule:nonzero;fill:rgb(18.431373%,18.039216%,25.490196%);fill-opacity:1;" d="M 123.5 503.824219 C 123.5 503.824219 117.003906 538.179688 141.710938 542.554688 C 166.421875 546.929688 202.085938 550.003906 202.085938 550.003906 L 218.101562 624.773438 L 239.621094 622.851562 C 239.621094 622.851562 236.757812 532.847656 229.71875 525.804688 C 222.683594 518.761719 189.222656 498.15625 189.222656 498.15625 Z M 123.5 503.824219 "/>
<path style=" stroke:none;fill-rule:nonzero;fill:rgb(18.431373%,18.039216%,25.490196%);fill-opacity:1;" d="M 171.753906 489.421875 L 182.558594 500.269531 C 182.558594 500.269531 260.585938 512.84375 263.59375 530.875 C 268.140625 558.097656 273.507812 617.296875 273.507812 617.296875 L 250.046875 615.539062 L 240.847656 548.246094 L 203.316406 539.703125 L 160.609375 516.417969 Z M 171.753906 489.421875 "/>
<path style=" stroke:none;fill-rule:nonzero;fill:rgb(89.411765%,89.411765%,89.411765%);fill-opacity:1;" d="M 171.152344 406.246094 L 164.875 397.921875 L 144.523438 397.585938 C 131.582031 404.476562 123.5 417.945312 123.5 432.613281 L 123.5 485.300781 C 123.5 485.300781 123.789062 492.308594 122.253906 508.410156 C 120.933594 522.304688 194.820312 500.269531 194.820312 500.269531 L 185.230469 422.082031 C 185.230469 422.082031 186 409.625 171.152344 406.246094 Z M 171.152344 406.246094 "/>
<path style=" stroke:none;fill-rule:nonzero;fill:rgb(79.215686%,79.215686%,79.215686%);fill-opacity:1;" d="M 743.417969 650 L 0.988281 650 C 0.441406 650 0 649.558594 0 649.011719 C 0 648.464844 0.441406 648.023438 0.988281 648.023438 L 743.417969 648.023438 C 743.964844 648.023438 744.40625 648.464844 744.40625 649.011719 C 744.40625 649.558594 743.964844 650 743.417969 650 Z M 743.417969 650 "/>
<path style=" stroke:none;fill-rule:nonzero;fill:rgb(89.803922%,89.803922%,89.803922%);fill-opacity:1;" d="M 381.300781 398.53125 C 380.441406 392.746094 380.214844 386.882812 380.621094 381.046875 L 381.300781 371.394531 C 377.574219 378.8125 378.414062 388.578125 381.300781 398.53125 Z M 381.300781 398.53125 "/>
<path style=" stroke:none;fill-rule:nonzero;fill:rgb(89.803922%,89.803922%,89.803922%);fill-opacity:1;" d="M 384.207031 400.144531 C 383.792969 396.691406 383.683594 393.210938 383.878906 389.738281 L 384.207031 383.992188 C 382.414062 388.410156 382.816406 394.21875 384.207031 400.144531 Z M 384.207031 400.144531 "/>
<path style=" stroke:none;fill-rule:nonzero;fill:rgb(24.705882%,23.921569%,33.72549%);fill-opacity:1;" d="M 397.121094 407.253906 L 397.121094 410.484375 C 397.117188 411.019531 396.6875 411.449219 396.152344 411.453125 L 394.539062 411.453125 C 394.453125 411.453125 394.371094 411.488281 394.308594 411.546875 C 394.25 411.609375 394.214844 411.691406 394.214844 411.777344 L 394.214844 438.265625 C 394.214844 438.800781 393.78125 439.234375 393.246094 439.234375 L 373.550781 439.234375 C 373.015625 439.234375 372.582031 438.800781 372.582031 438.265625 L 372.582031 411.777344 C 372.582031 411.597656 372.4375 411.453125 372.261719 411.453125 L 370.324219 411.453125 C 369.789062 411.453125 369.355469 411.019531 369.355469 410.484375 L 369.355469 407.253906 C 369.355469 406.996094 369.457031 406.75 369.636719 406.566406 C 369.820312 406.386719 370.066406 406.285156 370.324219 406.285156 L 396.152344 406.285156 C 396.6875 406.285156 397.121094 406.71875 397.121094 407.253906 Z M 397.121094 407.253906 "/>
<path style=" stroke:none;fill-rule:nonzero;fill:rgb(0%,56.862745%,48.627451%);fill-opacity:1;" d="M 372.613281 412.132812 L 394.246094 412.132812 L 394.246094 413.101562 L 372.613281 413.101562 Z M 372.613281 412.132812 "/>
<path style=" stroke:none;fill-rule:nonzero;fill:rgb(0%,56.862745%,48.627451%);fill-opacity:1;" d="M 394.214844 426.394531 C 387.207031 429.40625 379.269531 429.40625 372.261719 426.394531 L 372.261719 419.566406 C 379.382812 417.171875 387.09375 417.171875 394.214844 419.566406 Z M 394.214844 426.394531 "/>
<path style=" stroke:none;fill-rule:nonzero;fill:rgb(89.803922%,89.803922%,89.803922%);fill-opacity:1;" d="M 248.015625 420.261719 C 247.160156 414.476562 246.933594 408.617188 247.339844 402.78125 L 248.015625 393.125 C 244.289062 400.542969 245.132812 410.308594 248.015625 420.261719 Z M 248.015625 420.261719 "/>
<path style=" stroke:none;fill-rule:nonzero;fill:rgb(89.803922%,89.803922%,89.803922%);fill-opacity:1;" d="M 250.921875 421.878906 C 250.507812 418.425781 250.402344 414.945312 250.597656 411.472656 L 250.921875 405.722656 C 249.128906 410.140625 249.535156 415.953125 250.921875 421.878906 Z M 250.921875 421.878906 "/>
<path style=" stroke:none;fill-rule:nonzero;fill:rgb(24.705882%,23.921569%,33.72549%);fill-opacity:1;" d="M 263.839844 428.984375 L 263.839844 432.214844 C 263.835938 432.75 263.40625 433.183594 262.871094 433.183594 L 261.257812 433.183594 C 261.171875 433.183594 261.089844 433.21875 261.027344 433.28125 C 260.96875 433.339844 260.933594 433.421875 260.933594 433.507812 L 260.933594 460 C 260.929688 460.535156 260.5 460.964844 259.964844 460.96875 L 240.269531 460.96875 C 239.734375 460.96875 239.300781 460.535156 239.300781 460 L 239.300781 433.507812 C 239.300781 433.332031 239.15625 433.1875 238.976562 433.183594 L 237.039062 433.183594 C 236.507812 433.183594 236.074219 432.75 236.070312 432.214844 L 236.070312 428.984375 C 236.070312 428.726562 236.171875 428.480469 236.355469 428.300781 C 236.535156 428.117188 236.785156 428.015625 237.039062 428.015625 L 262.871094 428.015625 C 263.40625 428.019531 263.835938 428.449219 263.839844 428.984375 Z M 263.839844 428.984375 "/>
<path style=" stroke:none;fill-rule:nonzero;fill:rgb(0%,56.862745%,48.627451%);fill-opacity:1;" d="M 239.328125 433.863281 L 260.960938 433.863281 L 260.960938 434.832031 L 239.328125 434.832031 Z M 239.328125 433.863281 "/>
<path style=" stroke:none;fill-rule:nonzero;fill:rgb(0%,56.862745%,48.627451%);fill-opacity:1;" d="M 260.933594 448.125 C 253.925781 451.140625 245.988281 451.140625 238.976562 448.125 L 238.976562 441.296875 C 246.101562 438.902344 253.808594 438.902344 260.933594 441.296875 Z M 260.933594 448.125 "/>
<path style=" stroke:none;fill-rule:nonzero;fill:rgb(100%,72.156863%,72.156863%);fill-opacity:1;" d="M 430.695312 477.085938 L 388.5625 443.832031 C 388.230469 443.949219 387.886719 444.050781 387.542969 444.132812 C 384.535156 444.835938 381.371094 444.230469 378.835938 442.460938 C 376.285156 440.691406 374.621094 437.910156 374.269531 434.824219 C 373.597656 429.101562 377.503906 423.851562 383.175781 422.855469 C 388.847656 421.855469 394.308594 425.460938 395.628906 431.066406 C 395.738281 431.539062 395.8125 432.019531 395.855469 432.503906 L 437.796875 456.710938 L 448.234375 450.699219 L 459.792969 465.84375 L 443.589844 477.402344 C 439.695312 480.15625 434.453125 480.03125 430.695312 477.085938 Z M 430.695312 477.085938 "/>
<path style=" stroke:none;fill-rule:nonzero;fill:rgb(0%,56.862745%,48.627451%);fill-opacity:1;" d="M 464.933594 470.5625 L 440.898438 454.207031 L 452.195312 438.195312 C 455.292969 433.808594 461.097656 432.289062 465.945312 434.601562 C 470.851562 436.941406 473.324219 442.511719 471.765625 447.722656 Z M 464.933594 470.5625 "/>
<path style=" stroke:none;fill-rule:nonzero;fill:rgb(62.352941%,38.039216%,41.568627%);fill-opacity:1;" d="M 248.671875 439.261719 C 246.453125 438.097656 243.835938 437.976562 241.519531 438.933594 C 239.203125 439.886719 237.429688 441.816406 236.671875 444.207031 L 217.40625 445.882812 L 215.570312 457.847656 L 242.742188 455.097656 C 246.929688 456.125 251.222656 453.855469 252.738281 449.816406 C 254.25 445.777344 252.503906 441.242188 248.671875 439.261719 Z M 248.671875 439.261719 "/>
<path style=" stroke:none;fill-rule:nonzero;fill:rgb(89.411765%,89.411765%,89.411765%);fill-opacity:1;" d="M 133.585938 421.714844 L 128.136719 425.785156 C 128.136719 425.785156 125.109375 433.105469 131.035156 442.828125 C 136.964844 452.546875 174.515625 473.035156 174.515625 473.035156 L 235.316406 457.5 L 226.652344 440.492188 L 182.351562 441.734375 C 182.351562 441.734375 157.300781 410.488281 133.585938 421.714844 Z M 133.585938 421.714844 "/>
</g>
</svg>
